# xmcd
#
# Track frame offsets: 
#        150
#        20211
#        38874
#        59396
#        81195
#        102718
#        122335
#        146795
#        164220
#        187107
#        208917
#        236032
#        251742
#
# Disc length: 3647 seconds
#
# Revision: 2
# Processed by: cddbd v1.5.2PL0 Copyright (c) Steve Scherf et al.
# Submitted via: ExactAudioCopy v0.99pb5
#
DISCID=ce0e3d0d
DTITLE=Kevin Toney - Sweet Spot
DYEAR=2003
DGENRE=Jazz
TTITLE0=Mister T
TTITLE1=Sweet Spot
TTITLE2=Midnight Blue
TTITLE3=Dilemma
TTITLE4=So Much Fun
TTITLE5=Coast to Coast
TTITLE6=Morning Rain
TTITLE7=Better Than Ever
TTITLE8=Nu "M" Jaz
TTITLE9=Kiss
TTITLE10=See You Again
TTITLE11=Prelude to Portrait
TTITLE12=Portrait of You
EXTD=YEAR: 2003
EXTT0=
EXTT1=
EXTT2=
EXTT3=
EXTT4=
EXTT5=
EXTT6=
EXTT7=
EXTT8=
EXTT9=
EXTT10=
EXTT11=
EXTT12=
PLAYORDER=
